<svg width="70" height="70" viewBox="0 0 70 70" fill="none" xmlns="http://www.w3.org/2000/svg">
<g clip-path="url(#clip0_350_61)">
<path d="M58.3333 45.2083C54.6875 45.2083 51.1875 44.625 47.9208 43.5458C47.408 43.3825 46.8605 43.3613 46.3366 43.4846C45.8127 43.6079 45.332 43.871 44.9458 44.2458L38.5292 50.6625C30.2493 46.4515 23.5194 39.7215 19.3083 31.4417L25.725 24.9958C26.1113 24.6293 26.3851 24.1603 26.5142 23.6437C26.6434 23.1271 26.6226 22.5843 26.4542 22.0792C25.3477 18.7193 24.7865 15.204 24.7917 11.6667C24.7917 10.0625 23.4792 8.75 21.875 8.75H11.6667C10.0625 8.75 8.75 10.0625 8.75 11.6667C8.75 39.0542 30.9458 61.25 58.3333 61.25C59.9375 61.25 61.25 59.9375 61.25 58.3333V48.125C61.25 46.5208 59.9375 45.2083 58.3333 45.2083ZM61.25 17.5H52.5V8.75H46.6667V17.5H37.9167V23.3333H46.6667V32.0833H52.5V23.3333H61.25V17.5Z" fill="#B2B2B2"/>
</g>
<defs>
<clipPath id="clip0_350_61">
<rect width="70" height="70" fill="white"/>
</clipPath>
</defs>
</svg>
