<svg width="27" height="27" viewBox="0 0 27 27" fill="none" xmlns="http://www.w3.org/2000/svg">
<g clip-path="url(#clip0_338_50)">
<path d="M22.4984 4.09229H5.31046C4.55095 4.0931 3.82279 4.39517 3.28574 4.93222C2.74869 5.46927 2.44661 6.19744 2.4458 6.95694V19.2341C2.44661 19.9936 2.74869 20.7217 3.28574 21.2588C3.82279 21.7958 4.55095 22.0979 5.31046 22.0987H22.4984C23.2579 22.0979 23.9861 21.7958 24.5231 21.2588C25.0602 20.7217 25.3623 19.9936 25.3631 19.2341V6.95694C25.3623 6.19744 25.0602 5.46927 24.5231 4.93222C23.9861 4.39517 23.2579 4.0931 22.4984 4.09229ZM21.773 8.83074L14.4068 14.5601C14.2631 14.6717 14.0864 14.7323 13.9044 14.7323C13.7225 14.7323 13.5457 14.6717 13.4021 14.5601L6.03583 8.83074C5.94928 8.76538 5.87659 8.68347 5.82197 8.58978C5.76735 8.49608 5.7319 8.39246 5.71768 8.28495C5.70345 8.17743 5.71073 8.06816 5.7391 7.96349C5.76747 7.85881 5.81636 7.76081 5.88293 7.6752C5.9495 7.58958 6.03242 7.51804 6.12688 7.46475C6.22133 7.41146 6.32544 7.37746 6.43314 7.36475C6.54085 7.35204 6.65 7.36086 6.75427 7.3907C6.85854 7.42054 6.95583 7.4708 7.04051 7.53857L13.9044 12.8771L20.7684 7.53857C20.94 7.40896 21.1558 7.35211 21.369 7.38032C21.5822 7.40854 21.7757 7.51954 21.9078 7.68934C22.0398 7.85913 22.0996 8.07406 22.0744 8.28766C22.0492 8.50126 21.941 8.69634 21.773 8.83074Z" fill="#FF0000"/>
</g>
<defs>
<clipPath id="clip0_338_50">
<rect width="26.1912" height="26.1912" fill="white" transform="translate(0.808838)"/>
</clipPath>
</defs>
</svg>
