<svg width="70" height="70" viewBox="0 0 70 70" fill="none" xmlns="http://www.w3.org/2000/svg">
<g clip-path="url(#clip0_350_60)">
<path d="M70 35C70 51.9137 54.3288 65.625 35 65.625C31.5335 65.6297 28.0813 65.1796 24.7319 64.2863C22.1769 65.5812 16.31 68.0663 6.44 69.685C5.565 69.825 4.9 68.915 5.24563 68.1012C6.79437 64.4437 8.19438 59.57 8.61438 55.125C3.255 49.7438 0 42.7 0 35C0 18.0863 15.6712 4.375 35 4.375C54.3288 4.375 70 18.0863 70 35ZM31.4737 29.6012C31.1854 29.1708 30.8525 28.772 30.4806 28.4112C29.8959 27.8091 29.1988 27.3275 28.4288 26.9937L28.3937 26.9762C27.3576 26.4952 26.2286 26.2473 25.0863 26.25C20.895 26.25 17.5 29.5138 17.5 33.5431C17.5 37.5681 20.895 40.8319 25.0863 40.8319C26.5869 40.8319 27.9825 40.4162 29.1594 39.6944C28.56 41.3963 27.4531 43.2119 25.6156 45.0319C25.4425 45.2008 25.3059 45.4034 25.2141 45.6271C25.1222 45.8509 25.0772 46.0911 25.0817 46.3329C25.0862 46.5747 25.1402 46.8131 25.2403 47.0332C25.3404 47.2534 25.4845 47.4508 25.6638 47.6131C26.4206 48.3131 27.6194 48.2913 28.35 47.5694C34.1862 41.755 34.3438 35.5031 32.4669 31.3556C32.1912 30.7426 31.8587 30.1567 31.4737 29.6056V29.6012ZM48.125 39.6944C47.53 41.3963 46.4187 43.2119 44.5812 45.0319C44.4084 45.2011 44.2721 45.4039 44.1806 45.6278C44.0892 45.8518 44.0446 46.092 44.0495 46.3339C44.0544 46.5757 44.1088 46.8139 44.2093 47.0339C44.3097 47.254 44.4542 47.4511 44.6337 47.6131C45.3862 48.3131 46.585 48.2913 47.3156 47.5694C53.1519 41.755 53.3094 35.5031 51.4369 31.3556C51.1597 30.7425 50.8257 30.1566 50.4394 29.6056C50.1513 29.1737 49.8184 28.7733 49.4463 28.4112C48.8616 27.809 48.1645 27.3274 47.3944 26.9937L47.3594 26.9762C46.3246 26.4958 45.1971 26.2479 44.0562 26.25C39.8694 26.25 36.47 29.5138 36.47 33.5431C36.47 37.5681 39.8694 40.8319 44.0562 40.8319C45.5569 40.8319 46.9525 40.4162 48.1294 39.6944H48.125Z" fill="#B2B2B2"/>
</g>
<defs>
<clipPath id="clip0_350_60">
<rect width="70" height="70" fill="white"/>
</clipPath>
</defs>
</svg>
