<svg width="35" height="50" viewBox="0 0 35 50" fill="none" xmlns="http://www.w3.org/2000/svg">
<g clip-path="url(#clip0_337_45)">
<path d="M25.705 25.5595V21.2119H28.4543L34.5073 16.2957C34.5958 16.2307 34.6678 16.1457 34.7174 16.0478C34.767 15.9498 34.7929 15.8415 34.7929 15.7317V1.06579C34.7929 0.882649 34.721 0.706809 34.5928 0.576025C34.4646 0.445241 34.2902 0.369938 34.1071 0.366283L15.7178 0.00016928C15.5941 -0.0025571 15.4719 0.0276922 15.3637 0.0878111C15.2555 0.14793 15.1653 0.235752 15.1023 0.342259L10.2854 8.4489C10.0682 8.74724 10.2325 9.41716 10.5159 12.5628C8.6083 12.5566 8.37822 12.4775 8.07109 12.8171L0.474219 20.3139C0.172363 20.5654 0.166016 20.812 0.166016 20.812L0.66582 36.2056H5.56377V50H23.5564L29.1392 46.1494C29.2352 46.0855 29.314 45.9989 29.3686 45.8973C29.4231 45.7956 29.4516 45.682 29.4517 45.5667V29.8479C29.4517 29.6623 29.3779 29.4844 29.2467 29.3532C29.1155 29.2219 28.9375 29.1482 28.752 29.1482H22.7454C24.912 26.6534 25.7054 26.1098 25.705 25.5595ZM16.0973 1.4074L32.4758 1.73347L26.5285 8.01736H12.1687L16.0973 1.4074ZM1.96191 20.812L8.84258 14.0219L10.5926 14.0644L10.9615 20.812H1.96191ZM23.5564 48.1792V35.7558L28.0522 31.8756V45.1914L23.5564 48.1791V48.1792ZM27.4493 30.5476L21.82 35.406H16.6592L21.4988 30.5476H27.4493ZM24.3056 25.2931L17.7162 32.6899L17.9587 21.2119H24.3056V25.2931ZM28.4882 18.9787L28.6542 8.01736L33.3935 2.79958V15.3773L28.4882 18.9787Z" fill="white"/>
</g>
<defs>
<clipPath id="clip0_337_45">
<rect width="34.6875" height="50" fill="white" transform="translate(0.15625)"/>
</clipPath>
</defs>
</svg>
