<svg width="24" height="25" viewBox="0 0 24 25" fill="none" xmlns="http://www.w3.org/2000/svg">
<g clip-path="url(#clip0_338_51)">
<path d="M16.5 6.0957H13.5C12.9477 6.0957 12.5 6.54342 12.5 7.0957V10.0957H16.5C16.6137 10.0932 16.7216 10.1461 16.7892 10.2376C16.8568 10.3291 16.8758 10.4477 16.84 10.5557L16.1 12.7557C16.0318 12.9576 15.8431 13.0941 15.63 13.0957H12.5V20.5957C12.5 20.8718 12.2761 21.0957 12 21.0957H9.5C9.22386 21.0957 9 20.8718 9 20.5957V13.0957H7.5C7.22386 13.0957 7 12.8718 7 12.5957V10.5957C7 10.3196 7.22386 10.0957 7.5 10.0957H9V7.0957C9 4.88656 10.7909 3.0957 13 3.0957H16.5C16.7761 3.0957 17 3.31956 17 3.5957V5.5957C17 5.87184 16.7761 6.0957 16.5 6.0957Z" fill="#FF0000"/>
</g>
<defs>
<clipPath id="clip0_338_51">
<rect width="24" height="24" fill="white" transform="translate(0 0.0957031)"/>
</clipPath>
</defs>
</svg>
