<svg width="120" height="70" viewBox="0 0 120 70" fill="none" xmlns="http://www.w3.org/2000/svg">
<g clip-path="url(#clip0_319_34)">
<mask id="mask0_319_34" style="mask-type:luminance" maskUnits="userSpaceOnUse" x="21" y="2" width="46" height="61">
<path d="M53.6023 23.3333C55.1619 23.3333 56.6576 22.5651 57.7604 21.1977C58.8631 19.8302 59.4827 17.9755 59.4827 16.0417C59.4827 14.1078 58.8631 12.2531 57.7604 10.8857C56.6576 9.51823 55.1619 8.75 53.6023 8.75C52.0427 8.75 50.547 9.51823 49.4442 10.8857C48.3415 12.2531 47.7219 14.1078 47.7219 16.0417C47.7219 17.9755 48.3415 19.8302 49.4442 21.1977C50.547 22.5651 52.0427 23.3333 53.6023 23.3333Z" fill="white" stroke="white" stroke-width="1.56989" stroke-miterlimit="2"/>
<path d="M43.0174 58.3333L52.5554 55.3291C53.4728 55.052 53.755 53.5937 53.0494 52.8208L43.0174 42.2916L47.7217 30.625L35.4788 25.1708C34.8908 24.9083 34.4203 24.3833 34.1498 23.6833L28.9045 11.6666" stroke="white" stroke-width="1.56989" stroke-miterlimit="2" stroke-linecap="round" stroke-linejoin="round"/>
<path d="M43.0175 42.2917L34.8203 55.1104C34.5733 55.475 34.2675 55.7667 33.9147 55.9417L21.8481 61.25M47.7218 30.625L59.3649 34.6938C59.9177 34.8979 60.3999 35.3354 60.7057 35.9333L65.3629 45.2083" stroke="white" stroke-width="1.56989" stroke-miterlimit="2" stroke-linecap="round" stroke-linejoin="round"/>
<path d="M37.1371 11.6666C38.0729 11.6666 38.9703 11.2057 39.6319 10.3852C40.2936 9.56475 40.6653 8.45195 40.6653 7.29163C40.6653 6.1313 40.2936 5.01851 39.6319 4.19803C38.9703 3.37756 38.0729 2.91663 37.1371 2.91663C36.2014 2.91663 35.304 3.37756 34.6423 4.19803C33.9806 5.01851 33.6089 6.1313 33.6089 7.29163C33.6089 8.45195 33.9806 9.56475 34.6423 10.3852C35.304 11.2057 36.2014 11.6666 37.1371 11.6666Z" fill="white"/>
</mask>
<g mask="url(#mask0_319_34)">
<path d="M15.9678 0H72.4194V70H15.9678V0Z" fill="#F1F1F1"/>
</g>
<mask id="mask1_319_34" style="mask-type:luminance" maskUnits="userSpaceOnUse" x="63" y="7" width="47" height="56">
<path d="M76.5122 23.3333C74.9526 23.3333 73.4569 22.5651 72.3541 21.1977C71.2514 19.8302 70.6318 17.9755 70.6318 16.0417C70.6318 14.1078 71.2514 12.2531 72.3541 10.8857C73.4569 9.51823 74.9526 8.75 76.5122 8.75C78.0718 8.75 79.5675 9.51823 80.6703 10.8857C81.773 12.2531 82.3926 14.1078 82.3926 16.0417C82.3926 17.9755 81.773 19.8302 80.6703 21.1977C79.5675 22.5651 78.0718 23.3333 76.5122 23.3333Z" fill="white" stroke="white" stroke-width="1.56989" stroke-miterlimit="2"/>
<path d="M87.0968 58.3333L77.5588 55.3291C76.6415 55.052 76.3592 53.5937 77.0649 52.8208L87.0968 42.2916L82.3925 30.625L94.6355 25.1708C95.2235 24.9083 95.6939 24.3833 95.9644 23.6833L101.21 11.6666" stroke="white" stroke-width="1.56989" stroke-miterlimit="2" stroke-linecap="round" stroke-linejoin="round"/>
<path d="M87.0968 42.2917L95.294 55.1104C95.541 55.475 95.8468 55.7667 96.1996 55.9417L108.266 61.25M82.3925 30.625L70.7493 34.6938C70.1966 34.8979 69.7144 35.3354 69.4086 35.9333L64.7513 45.2083" stroke="white" stroke-width="1.56989" stroke-miterlimit="2" stroke-linecap="round" stroke-linejoin="round"/>
</mask>
<g mask="url(#mask1_319_34)">
<path d="M114.146 0H57.6949V70H114.146V0Z" fill="#F1F1F1"/>
</g>
</g>
<defs>
<clipPath id="clip0_319_34">
<rect width="118.548" height="70" fill="white" transform="translate(0.72583)"/>
</clipPath>
</defs>
</svg>
