<svg width="51" height="50" viewBox="0 0 51 50" fill="none" xmlns="http://www.w3.org/2000/svg">
<g clip-path="url(#clip0_337_44)">
<mask id="mask0_337_44" style="mask-type:luminance" maskUnits="userSpaceOnUse" x="5" y="2" width="40" height="43">
<path d="M33.8333 16.6667C35.2147 16.6667 36.5394 16.1179 37.5162 15.1412C38.4929 14.1644 39.0417 12.8397 39.0417 11.4583C39.0417 10.077 38.4929 8.75224 37.5162 7.77549C36.5394 6.79873 35.2147 6.25 33.8333 6.25C32.452 6.25 31.1272 6.79873 30.1505 7.77549C29.1737 8.75224 28.625 10.077 28.625 11.4583C28.625 12.8397 29.1737 14.1644 30.1505 15.1412C31.1272 16.1179 32.452 16.6667 33.8333 16.6667Z" fill="white" stroke="white" stroke-width="1.33333" stroke-miterlimit="2"/>
<path d="M24.4583 41.6666L32.9062 39.5208C33.7187 39.3228 33.9687 38.2812 33.3437 37.7291L24.4583 30.2083L28.6249 21.8749L17.7812 17.9791C17.2603 17.7916 16.8437 17.4166 16.6041 16.9166L11.9583 8.33325" stroke="white" stroke-width="1.33333" stroke-miterlimit="2" stroke-linecap="round" stroke-linejoin="round"/>
<path d="M24.4583 30.2083L17.1978 39.3646C16.9791 39.625 16.7083 39.8333 16.3958 39.9583L5.70825 43.75M28.6249 21.875L38.9374 24.7813C39.427 24.9271 39.8541 25.2396 40.1249 25.6667L44.2499 32.2917" stroke="white" stroke-width="1.33333" stroke-miterlimit="2" stroke-linecap="round" stroke-linejoin="round"/>
<path d="M19.25 8.33325C20.0788 8.33325 20.8737 8.00401 21.4597 7.41796C22.0458 6.83191 22.375 6.03705 22.375 5.20825C22.375 4.37945 22.0458 3.58459 21.4597 2.99854C20.8737 2.41249 20.0788 2.08325 19.25 2.08325C18.4212 2.08325 17.6263 2.41249 17.0403 2.99854C16.4542 3.58459 16.125 4.37945 16.125 5.20825C16.125 6.03705 16.4542 6.83191 17.0403 7.41796C17.6263 8.00401 18.4212 8.33325 19.25 8.33325Z" fill="white"/>
</mask>
<g mask="url(#mask0_337_44)">
<path d="M0.5 0H50.5V50H0.5V0Z" fill="white"/>
</g>
</g>
<defs>
<clipPath id="clip0_337_44">
<rect width="50" height="50" fill="white" transform="translate(0.5)"/>
</clipPath>
</defs>
</svg>
