<svg width="70" height="70" viewBox="0 0 70 70" fill="none" xmlns="http://www.w3.org/2000/svg">
<g clip-path="url(#clip0_313_3)">
<path fill-rule="evenodd" clip-rule="evenodd" d="M48.6208 38.2958C52.6167 41.0083 55.4167 44.6833 55.4167 49.5833V58.3333H67.0833V49.5833C67.0833 43.225 56.6708 39.4625 48.6208 38.2958Z" fill="#E00000"/>
<path d="M26.2499 35C32.6932 35 37.9166 29.7767 37.9166 23.3333C37.9166 16.89 32.6932 11.6667 26.2499 11.6667C19.8066 11.6667 14.5833 16.89 14.5833 23.3333C14.5833 29.7767 19.8066 35 26.2499 35Z" fill="#E00000"/>
<path fill-rule="evenodd" clip-rule="evenodd" d="M43.7501 35C50.1959 35 55.4167 29.7792 55.4167 23.3333C55.4167 16.8875 50.1959 11.6667 43.7501 11.6667C42.3792 11.6667 41.0959 11.9583 39.8709 12.3667C42.3808 15.4706 43.75 19.3416 43.75 23.3333C43.75 27.3251 42.3808 31.196 39.8709 34.3C41.0959 34.7083 42.3792 35 43.7501 35ZM26.2501 37.9167C18.4626 37.9167 2.91675 41.825 2.91675 49.5833V58.3333H49.5834V49.5833C49.5834 41.825 34.0376 37.9167 26.2501 37.9167Z" fill="#E00000"/>
</g>
<defs>
<clipPath id="clip0_313_3">
<rect width="70" height="70" fill="white"/>
</clipPath>
</defs>
</svg>
