<svg width="70" height="70" viewBox="0 0 70 70" fill="none" xmlns="http://www.w3.org/2000/svg">
<g clip-path="url(#clip0_319_36)">
<path d="M24.274 9.87307C26.6287 9.87307 28.5375 7.96424 28.5375 5.60957C28.5375 3.2549 26.6287 1.34607 24.274 1.34607C21.9193 1.34607 20.0105 3.2549 20.0105 5.60957C20.0105 7.96424 21.9193 9.87307 24.274 9.87307Z" fill="#F1F1F1"/>
<path d="M27.1319 20.2377C27.4365 21.4862 27.8157 22.7154 28.2674 23.9185C29.1073 26.1313 30.4105 26.6571 31.4537 28.9381C31.9921 30.3007 32.3527 31.7269 32.5267 33.1817C32.9601 35.4015 32.4414 36.456 31.3258 39.1335C31.3258 39.1335 30.834 39.2643 26.6032 49.2764L26.157 67.6052L27.8823 68.8601C28.1449 68.9211 28.4174 68.9271 28.6825 68.8778C28.9475 68.8284 29.1995 68.7247 29.4226 68.5732C29.6457 68.4217 29.8349 68.2256 29.9786 67.9974C30.1222 67.7692 30.217 67.5137 30.257 67.247L32.3817 53.0837L36.4462 44.9546L43.9258 37.9596L44.1177 33.3835L36.4462 17.8586" fill="#F1F1F1"/>
<path d="M27.1319 20.2377C27.4365 21.4862 27.8157 22.7154 28.2674 23.9185C29.1073 26.1313 30.4105 26.6571 31.4537 28.9381C31.9921 30.3007 32.3527 31.7269 32.5267 33.1817C32.9601 35.4015 32.4414 36.456 31.3258 39.1335C31.3258 39.1335 30.834 39.2643 26.6032 49.2764L26.157 67.6052L27.8823 68.8601C28.1449 68.9211 28.4174 68.9271 28.6825 68.8778C28.9475 68.8284 29.1995 68.7247 29.4226 68.5732C29.6457 68.4217 29.8349 68.2256 29.9786 67.9974C30.1222 67.7692 30.217 67.5137 30.257 67.247L32.3817 53.0837L36.4462 44.9546L43.9258 37.9596L44.1177 33.3835L36.4462 17.8586" stroke="#F1F1F1" stroke-width="0.444444" stroke-miterlimit="10"/>
<path d="M44.5967 36.6337L51.37 50.1802L65.188 58.3093L63.8336 62.3738L47.3055 55.6006L37.822 44.7613" fill="#F1F1F1"/>
<path d="M36.4676 17.6668C33.7574 12.2479 30.5072 11.9764 28.3385 12.7893C25.2219 14.0087 26.7852 18.7938 27.5767 21.8663" fill="#F1F1F1"/>
<path d="M36.4676 17.6668C33.7574 12.2479 30.5072 11.9764 28.3385 12.7893C25.2219 14.0087 26.7852 18.7938 27.5767 21.8663" stroke="#F1F1F1" stroke-width="0.444444" stroke-miterlimit="10"/>
<path d="M10.6307 50.5028C14.3715 50.5028 17.404 47.4703 17.404 43.7295C17.404 39.9887 14.3715 36.9562 10.6307 36.9562C6.88992 36.9562 3.85742 39.9887 3.85742 43.7295C3.85742 47.4703 6.88992 50.5028 10.6307 50.5028Z" fill="#F1F1F1"/>
<path d="M10.6292 50.5014C14.37 50.5014 17.4025 47.4689 17.4025 43.7281C17.4025 39.9873 14.37 36.9548 10.6292 36.9548C6.88846 36.9548 3.85596 39.9873 3.85596 43.7281C3.85596 47.4689 6.88846 50.5014 10.6292 50.5014Z" stroke="#F1F1F1" stroke-width="0.444444" stroke-miterlimit="10"/>
<path d="M24.4742 9.6741C26.8289 9.6741 28.7377 7.76526 28.7377 5.4106C28.7377 3.05593 26.8289 1.14709 24.4742 1.14709C22.1195 1.14709 20.2107 3.05593 20.2107 5.4106C20.2107 7.76526 22.1195 9.6741 24.4742 9.6741Z" stroke="#F1F1F1" stroke-width="0.444444" stroke-miterlimit="10"/>
<path d="M31.0614 28.1393C31.0614 28.1393 31.6157 29.5349 31.9752 30.8026C32.6116 32.8622 32.5607 35.073 31.8303 37.1012C31.8303 37.1012 26.2309 48.2517 26.2309 49.7425L25.4933 66.4384C25.462 66.7683 25.4971 67.1011 25.5966 67.4172C25.696 67.7334 25.8579 68.0263 26.0725 68.2788C26.2871 68.5314 26.5502 68.7383 26.8461 68.8874C27.1421 69.0365 27.4649 69.1248 27.7956 69.1471C28.4823 69.0565 29.1201 68.742 29.61 68.2523C30.1 67.7626 30.4148 67.1251 30.5057 66.4384L32.403 52.8904C32.673 51.3996 37.5519 43.9484 38.6348 43.0005L42.5643 39.7488C43.4521 38.4764 43.9633 36.9796 44.0395 35.4299C44.3254 33.729 44.0875 31.9814 43.3573 30.4189L36.4675 17.6667" stroke="#F1F1F1" stroke-width="0.444444" stroke-linecap="round" stroke-linejoin="round"/>
<path d="M44.1389 36.0367C44.1389 36.0367 49.3845 48.0428 51.0714 49.5862C52.8621 51.2233 62.7491 56.9549 62.7491 56.9549C63.3375 57.2815 63.8099 57.7828 64.1012 58.3894C64.3924 58.9961 64.4881 59.6782 64.3749 60.3415C64.2487 60.6232 64.0635 60.8746 63.8319 61.0787C63.6003 61.2828 63.3277 61.4348 63.0323 61.5247C62.737 61.6145 62.4258 61.64 62.1198 61.5994C61.8138 61.5588 61.52 61.4531 61.2583 61.2895C61.2583 61.2895 46.7951 54.5844 45.408 53.4318C43.8632 52.1485 38.6689 44.3932 38.6689 44.3932M36.4675 17.6667C33.7573 12.2478 30.3707 11.9195 28.2034 12.7324C27.7144 12.998 27.3036 13.387 27.0119 13.8608C26.7201 14.3346 26.5576 14.8765 26.5406 15.4327M29.6928 17.6667C29.6928 17.6667 27.5426 26.7395 27.1389 27.1843C26.7964 27.5623 16.7729 32.7311 16.7729 32.7311" stroke="#F1F1F1" stroke-width="0.444444" stroke-linecap="round" stroke-linejoin="round"/>
</g>
<defs>
<clipPath id="clip0_319_36">
<rect width="70" height="70" fill="white"/>
</clipPath>
</defs>
</svg>
