<svg width="24" height="25" viewBox="0 0 24 25" fill="none" xmlns="http://www.w3.org/2000/svg">
<g clip-path="url(#clip0_338_54)">
<path fill-rule="evenodd" clip-rule="evenodd" d="M5 3.0957H19C20.1046 3.0957 21 3.99113 21 5.0957V19.0957C21 20.2003 20.1046 21.0957 19 21.0957H5C3.89543 21.0957 3 20.2003 3 19.0957V5.0957C3 3.99113 3.89543 3.0957 5 3.0957ZM8 18.0957C8.27614 18.0957 8.5 17.8718 8.5 17.5957V10.5957C8.5 10.3196 8.27614 10.0957 8 10.0957H6.5C6.22386 10.0957 6 10.3196 6 10.5957V17.5957C6 17.8718 6.22386 18.0957 6.5 18.0957H8ZM7.25 9.0957C6.42157 9.0957 5.75 8.42413 5.75 7.5957C5.75 6.76727 6.42157 6.0957 7.25 6.0957C8.07843 6.0957 8.75 6.76727 8.75 7.5957C8.75 8.42413 8.07843 9.0957 7.25 9.0957ZM17.5 18.0957C17.7761 18.0957 18 17.8718 18 17.5957V12.9957C18.0325 11.4065 16.8576 10.0502 15.28 9.8557C14.177 9.75495 13.1083 10.2701 12.5 11.1957V10.5957C12.5 10.3196 12.2761 10.0957 12 10.0957H10.5C10.2239 10.0957 10 10.3196 10 10.5957V17.5957C10 17.8718 10.2239 18.0957 10.5 18.0957H12C12.2761 18.0957 12.5 17.8718 12.5 17.5957V13.8457C12.5 13.0173 13.1716 12.3457 14 12.3457C14.8284 12.3457 15.5 13.0173 15.5 13.8457V17.5957C15.5 17.8718 15.7239 18.0957 16 18.0957H17.5Z" fill="#FF0000"/>
</g>
<defs>
<clipPath id="clip0_338_54">
<rect width="24" height="24" fill="white" transform="translate(0 0.0957031)"/>
</clipPath>
</defs>
</svg>
