<svg width="24" height="25" viewBox="0 0 24 25" fill="none" xmlns="http://www.w3.org/2000/svg">
<g clip-path="url(#clip0_338_49)">
<path d="M20 16C18.75 16 17.55 15.8 16.43 15.43C16.2542 15.374 16.0664 15.3667 15.8868 15.409C15.7072 15.4513 15.5424 15.5415 15.41 15.67L13.21 17.87C10.3712 16.4262 8.06378 14.1188 6.62 11.28L8.82 9.07C8.95245 8.94434 9.04632 8.78352 9.0906 8.6064C9.13488 8.42928 9.12773 8.2432 9.07 8.07C8.69065 6.91806 8.49821 5.7128 8.5 4.5C8.5 3.95 8.05 3.5 7.5 3.5H4C3.45 3.5 3 3.95 3 4.5C3 13.89 10.61 21.5 20 21.5C20.55 21.5 21 21.05 21 20.5V17C21 16.45 20.55 16 20 16ZM19 12.5H21C21 10.1131 20.0518 7.82387 18.364 6.13604C16.6761 4.44821 14.3869 3.5 12 3.5V5.5C15.87 5.5 19 8.63 19 12.5ZM15 12.5H17C17 9.74 14.76 7.5 12 7.5V9.5C13.66 9.5 15 10.84 15 12.5Z" fill="white"/>
</g>
<defs>
<clipPath id="clip0_338_49">
<rect width="24" height="24" fill="white" transform="translate(0 0.5)"/>
</clipPath>
</defs>
</svg>
