<svg width="24" height="25" viewBox="0 0 24 25" fill="none" xmlns="http://www.w3.org/2000/svg">
<g clip-path="url(#clip0_338_52)">
<path fill-rule="evenodd" clip-rule="evenodd" d="M16 3.0957H8C5.23858 3.0957 3 5.33428 3 8.0957V16.0957C3 18.8571 5.23858 21.0957 8 21.0957H16C18.7614 21.0957 21 18.8571 21 16.0957V8.0957C21 5.33428 18.7614 3.0957 16 3.0957ZM19.25 16.0957C19.2445 17.8883 17.7926 19.3402 16 19.3457H8C6.20735 19.3402 4.75549 17.8883 4.75 16.0957V8.0957C4.75549 6.30305 6.20735 4.85119 8 4.8457H16C17.7926 4.85119 19.2445 6.30305 19.25 8.0957V16.0957ZM16.75 8.3457C17.3023 8.3457 17.75 7.89798 17.75 7.3457C17.75 6.79342 17.3023 6.3457 16.75 6.3457C16.1977 6.3457 15.75 6.79342 15.75 7.3457C15.75 7.89798 16.1977 8.3457 16.75 8.3457ZM12 7.5957C9.51472 7.5957 7.5 9.61042 7.5 12.0957C7.5 14.581 9.51472 16.5957 12 16.5957C14.4853 16.5957 16.5 14.581 16.5 12.0957C16.5027 10.9014 16.0294 9.75527 15.1849 8.91078C14.3404 8.06629 13.1943 7.59304 12 7.5957ZM9.25 12.0957C9.25 13.6145 10.4812 14.8457 12 14.8457C13.5188 14.8457 14.75 13.6145 14.75 12.0957C14.75 10.5769 13.5188 9.3457 12 9.3457C10.4812 9.3457 9.25 10.5769 9.25 12.0957Z" fill="#FF0000"/>
</g>
<defs>
<clipPath id="clip0_338_52">
<rect width="24" height="24" fill="white" transform="translate(0 0.0957031)"/>
</clipPath>
</defs>
</svg>
