<svg width="70" height="70" viewBox="0 0 70 70" fill="none" xmlns="http://www.w3.org/2000/svg">
<g clip-path="url(#clip0_313_2)">
<path d="M43.7501 40.8333C35.9626 40.8333 20.4167 44.7125 20.4167 52.5V58.3333H67.0834V52.5C67.0834 44.7125 51.5376 40.8333 43.7501 40.8333ZM43.7501 35C46.8443 35 49.8117 33.7708 51.9997 31.5829C54.1876 29.395 55.4168 26.4275 55.4168 23.3333C55.4168 20.2391 54.1876 17.2717 51.9997 15.0838C49.8117 12.8958 46.8443 11.6667 43.7501 11.6667C40.6559 11.6667 37.6884 12.8958 35.5005 15.0838C33.3126 17.2717 32.0834 20.2391 32.0834 23.3333C32.0834 26.4275 33.3126 29.395 35.5005 31.5829C37.6884 33.7708 40.6559 35 43.7501 35ZM14.5834 38.7333L21.7292 43.0792L19.8334 34.8833L26.2501 29.4L17.8209 28.6708L14.5834 20.9708L11.2876 28.6708L2.91675 29.4L9.27508 34.8833L7.29175 43.0792L14.5834 38.7333Z" fill="#E00000"/>
</g>
<defs>
<clipPath id="clip0_313_2">
<rect width="70" height="70" fill="white"/>
</clipPath>
</defs>
</svg>
