<svg width="70" height="70" viewBox="0 0 70 70" fill="none" xmlns="http://www.w3.org/2000/svg">
<g clip-path="url(#clip0_313_5)">
<path d="M11.9615 3.82675C8.02539 3.82675 4.85352 6.99589 4.85352 10.9375C4.85352 14.875 8.02539 18.0469 11.9629 18.0469C15.9004 18.0469 19.0723 14.875 19.0723 10.9375C19.0723 6.99589 15.9004 3.82675 11.9615 3.82675ZM30.0098 7.458C29.6543 8.02265 29.4629 8.76777 29.3945 9.55253C26.5508 9.45683 24.0352 9.41171 21.4238 9.45273C21.5332 10.3127 21.5742 11.1139 21.4785 11.9137C24.1855 11.8795 26.8242 11.9137 29.4355 12.0189C29.4766 12.4455 29.5312 12.8338 29.5996 13.1482C27.9727 16.4883 26.127 19.1816 25.1836 22.7773C25.498 26.1406 25.8945 30.0508 28.3418 33.4004C29.0254 36.1211 29.5859 38.8281 30.3379 41.5488C30.625 38.1172 31.377 34.4531 33.2637 30.7207C33.0039 29.4766 32.9766 28.3691 33.0859 27.207C32.5117 26.0996 31.7461 24.9922 30.4609 23.9258C32.2246 20.6719 32.2656 17.6094 32.8672 14.1094L35.5332 13.4559C35.7793 13.1291 35.9844 12.7832 36.1348 12.4223C40.373 12.7695 44.502 13.2795 48.5215 13.918C48.6035 13.0853 48.7949 12.2787 49.082 11.5172C45.0352 10.8678 40.8789 10.3482 36.6133 9.99003C36.6133 9.36796 36.5586 8.72128 36.4629 8.0582C34.125 7.70683 32.1426 7.22968 30.0098 7.458ZM58.0371 7.7916C54.0996 7.7916 50.9277 10.9607 50.9277 14.9023C50.9277 18.8398 54.0996 22.0117 58.0371 22.0117C61.9746 22.0117 65.1465 18.8398 65.1465 14.9023C65.1465 10.9607 61.9746 7.7916 58.0371 7.7916ZM39.5801 22.5723C38.5547 22.5723 37.584 23.1055 36.8047 24.1582C36.0117 25.1973 35.4785 26.7285 35.4785 28.4375C35.4785 29.3398 35.6289 30.2969 35.8887 31.0488C37.1055 30.625 38.3633 30.0234 39.5391 28.998C40.6191 29.873 41.8086 30.4883 43.2031 31.0488C43.5039 30.2422 43.6816 29.4219 43.6816 28.4375C43.6816 26.7285 43.1484 25.1973 42.3555 24.1582C41.5762 23.1055 40.6055 22.5723 39.5801 22.5723ZM39.5391 30.625C38.6094 32.0742 38.3359 32.6348 36.5723 32.3887C37.2969 33.4004 38.3086 34.3164 39.5801 34.3027C41.002 34.2891 41.9316 33.4141 42.5605 32.416C41.0293 32.5254 40.25 31.9922 39.5391 30.625ZM47.8516 34.4941C48.1797 37.9258 48.3438 39.8809 48.0566 43.2168C48.3574 43.6543 48.4395 45.8281 49.5742 46.293C47.8242 47.1816 47.168 49.5879 46.2109 50.5312C43.7227 53.4844 41.959 58.0918 40.25 62.3301C40.7559 64.0801 41.3848 65.8164 42.123 67.5391H49.9023C49.1367 63.8203 48.043 60.0605 46.8672 56.3144C47.332 55.5762 47.2773 55.7676 47.7559 53.1699C49.793 51.7754 54.209 49.4375 54.9473 46.3887C54.2637 43.668 53.3477 41.9043 51.7344 39.5664C52.1172 36.2578 49.5195 35.3555 47.8516 34.4941ZM34.1387 34.959C33.6602 36.3809 33.332 37.7891 33.0996 39.1836L35 39.0195C34.5625 37.6934 34.3301 36.2715 34.1387 34.959ZM43.1484 35.4375C42.1367 36.2578 40.9062 36.7637 39.5801 36.7637C38.5684 36.7637 37.625 36.4766 36.791 35.9844C36.8594 36.3125 36.9141 36.6406 36.9961 36.9687C37.2559 38.1309 37.6387 39.2656 38.0898 40.0312C38.5273 40.7832 38.9102 41.0566 39.3066 41.084C39.7305 41.1113 40.209 40.8789 40.7969 40.168C41.3984 39.457 41.9863 38.3633 42.4648 37.2422C42.7246 36.6269 42.957 36.0117 43.1484 35.4375ZM45.5273 36.1211C45.1445 37.2012 44.8027 38.1172 44.3516 39.0605L45.6914 39.1289C45.6641 38.1309 45.6094 37.1328 45.5273 36.1211ZM36.0391 41.4121L32.7988 41.6855C32.7168 42.7383 32.6758 43.791 32.6484 44.8301L45.582 44.625C45.6777 43.6269 45.7188 42.6152 45.7324 41.6035L42.9297 41.4531C41.8906 42.6289 40.4004 43.5996 39.1426 43.5449C37.7344 43.4492 36.709 42.4922 36.0391 41.4121ZM45.0078 47.0859L32.6484 47.291C32.5254 48.5625 33.5918 49.5059 34.3301 50.0664L43.4492 50.0391C44.4336 48.9453 44.625 48.5078 45.0078 47.0859ZM32.2656 51.5156C30.2969 56.8476 28.2051 62.166 26.6328 67.5391H33.8926C34.8086 65.8574 35.6426 64.1348 36.3535 62.3711C36.2578 58.0098 34.3711 53.7715 32.2656 51.5156ZM41.877 52.5137L36.1484 52.5273C37.2148 54.3184 37.7617 56.4648 38.1992 58.7617L39.334 58.6523C40.168 56.5742 40.7832 54.4551 41.877 52.5137Z" fill="#E00000"/>
</g>
<defs>
<clipPath id="clip0_313_5">
<rect width="70" height="70" fill="white"/>
</clipPath>
</defs>
</svg>
