<svg width="70" height="70" viewBox="0 0 70 70" fill="none" xmlns="http://www.w3.org/2000/svg">
<g clip-path="url(#clip0_350_62)">
<path d="M34.9998 64.1666C30.9651 64.1666 27.5254 62.7443 24.6807 59.8996C21.836 57.0548 20.4146 53.6161 20.4165 49.5833V20.4166C20.4165 16.3819 21.8389 12.9422 24.6836 10.0975C27.5283 7.25276 30.9671 5.83137 34.9998 5.83331C39.0346 5.83331 42.4743 7.25568 45.319 10.1004C48.1637 12.9451 49.5851 16.3839 49.5832 20.4166V35H34.9998V40.8333C33.3957 40.8333 32.0219 41.405 30.8786 42.5483C29.7353 43.6917 29.1646 45.0644 29.1665 46.6666C29.1665 48.2222 29.7382 49.559 30.8815 50.6771C32.0248 51.7951 33.3976 52.4028 34.9998 52.5V64.1666ZM40.8332 64.1666V62.4896C40.8332 59.9618 42.0485 58.1389 44.479 57.0208C46.9096 55.9028 49.5832 55.3437 52.4998 55.3437C55.4165 55.3437 58.0901 55.9028 60.5207 57.0208C62.9512 58.1389 64.1665 59.9618 64.1665 62.4896V64.1666H40.8332ZM52.4998 52.5C50.8957 52.5 49.5219 51.9283 48.3786 50.785C47.2353 49.6417 46.6646 48.2689 46.6665 46.6666C46.6665 45.0625 47.2382 43.6887 48.3815 42.5454C49.5248 41.4021 50.8976 40.8314 52.4998 40.8333C54.104 40.8333 55.4778 41.405 56.6211 42.5483C57.7644 43.6917 58.3351 45.0644 58.3332 46.6666C58.3332 48.2708 57.7615 49.6446 56.6182 50.7879C55.4748 51.9312 54.1021 52.5019 52.4998 52.5ZM34.9998 49.5833C34.1735 49.5833 33.4803 49.3033 32.9203 48.7433C32.3603 48.1833 32.0812 47.4911 32.0832 46.6666C32.0832 45.8403 32.3632 45.1471 32.9232 44.5871C33.4832 44.0271 34.1754 43.748 34.9998 43.75C35.8262 43.75 36.5194 44.03 37.0794 44.59C37.6394 45.15 37.9184 45.8422 37.9165 46.6666C37.9165 47.493 37.6365 48.1862 37.0765 48.7462C36.5165 49.3062 35.8243 49.5853 34.9998 49.5833ZM34.9998 29.1666C36.604 29.1666 37.9778 28.595 39.1211 27.4516C40.2644 26.3083 40.8351 24.9355 40.8332 23.3333C40.8332 21.7291 40.2615 20.3554 39.1182 19.2121C37.9748 18.0687 36.6021 17.498 34.9998 17.5C33.3957 17.5 32.0219 18.0716 30.8786 19.215C29.7353 20.3583 29.1646 21.7311 29.1665 23.3333C29.1665 24.9375 29.7382 26.3112 30.8815 27.4546C32.0248 28.5979 33.3976 29.1686 34.9998 29.1666Z" fill="#B2B2B2"/>
</g>
<defs>
<clipPath id="clip0_350_62">
<rect width="70" height="70" fill="white"/>
</clipPath>
</defs>
</svg>
