<svg width="24" height="25" viewBox="0 0 24 25" fill="none" xmlns="http://www.w3.org/2000/svg">
<g clip-path="url(#clip0_338_53)">
<path d="M20.9727 6.81311C20.5083 7.43263 19.9469 7.97304 19.3102 8.41347C19.3102 8.5753 19.3102 8.73713 19.3102 8.90796C19.3153 11.8468 18.1414 14.6648 16.0517 16.7302C13.9619 18.7956 11.1311 19.9356 8.19393 19.8946C6.49587 19.9003 4.81955 19.5126 3.2963 18.7618C3.21416 18.7259 3.16119 18.6447 3.1615 18.555V18.4561C3.1615 18.327 3.26611 18.2224 3.39515 18.2224C5.0643 18.1673 6.6739 17.5886 7.99622 16.5681C6.48541 16.5376 5.12607 15.6426 4.50048 14.2664C4.46889 14.1913 4.47872 14.105 4.52645 14.0389C4.57417 13.9728 4.65288 13.9364 4.73413 13.9428C5.1933 13.9889 5.65706 13.9462 6.10008 13.8169C4.43227 13.4707 3.17909 12.0861 2.99974 10.3914C2.99337 10.3101 3.0298 10.2314 3.09588 10.1836C3.16195 10.1359 3.24812 10.126 3.32326 10.1577C3.77082 10.3552 4.25397 10.4592 4.74312 10.4633C3.28172 9.50417 2.65049 7.67976 3.20643 6.02193C3.26382 5.86084 3.40169 5.74182 3.56938 5.70864C3.73706 5.67545 3.90984 5.73299 4.0242 5.8601C5.99627 7.95896 8.70592 9.20967 11.5818 9.3485C11.5082 9.05456 11.472 8.75246 11.474 8.44942C11.5009 6.86042 12.4841 5.44491 13.9633 4.86557C15.4424 4.28624 17.1248 4.65774 18.2229 5.80615C18.9713 5.66356 19.6949 5.41216 20.3706 5.05992C20.4201 5.02902 20.4829 5.02902 20.5324 5.05992C20.5633 5.10944 20.5633 5.17223 20.5324 5.22175C20.2051 5.97123 19.6522 6.59983 18.9508 7.0199C19.565 6.94867 20.1684 6.80378 20.7481 6.58835C20.7969 6.55513 20.861 6.55513 20.9098 6.58835C20.9507 6.60705 20.9813 6.64281 20.9934 6.68612C21.0055 6.72943 20.9979 6.77589 20.9727 6.81311Z" fill="#FF0000"/>
</g>
<defs>
<clipPath id="clip0_338_53">
<rect width="24" height="24" fill="white" transform="translate(0 0.0957031)"/>
</clipPath>
</defs>
</svg>
